<mxfile host="app.diagrams.net" modified="2023-05-18T13:14:40.785Z" agent="Mozilla/5.0 (Windows NT 10.0; Win64; x64) AppleWebKit/537.36 (KHTML, like Gecko) Chrome/113.0.0.0 Safari/537.36" etag="METXZ1ZlwNrk2Qgp7ON7" version="21.3.2" type="github">
  <diagram name="페이지-1" id="giBCQDRy0tIcnZJqyviJ">
    <mxGraphModel dx="1487" dy="739" grid="1" gridSize="10" guides="1" tooltips="1" connect="1" arrows="1" fold="1" page="1" pageScale="1" pageWidth="827" pageHeight="1169" math="0" shadow="0">
      <root>
        <mxCell id="0" />
        <mxCell id="1" parent="0" />
        <mxCell id="QBiDkqyLC_gtFL6pFu3h-56" value="Private subnet b2" style="points=[[0,0],[0.25,0],[0.5,0],[0.75,0],[1,0],[1,0.25],[1,0.5],[1,0.75],[1,1],[0.75,1],[0.5,1],[0.25,1],[0,1],[0,0.75],[0,0.5],[0,0.25]];outlineConnect=0;gradientColor=none;html=1;whiteSpace=wrap;fontSize=12;fontStyle=0;container=1;pointerEvents=0;collapsible=0;recursiveResize=0;shape=mxgraph.aws4.group;grIcon=mxgraph.aws4.group_security_group;grStroke=0;strokeColor=#147EBA;fillColor=#E6F2F8;verticalAlign=top;align=left;spacingLeft=30;fontColor=#147EBA;dashed=0;" vertex="1" parent="1">
          <mxGeometry x="515" y="670" width="180" height="110" as="geometry" />
        </mxCell>
        <mxCell id="QBiDkqyLC_gtFL6pFu3h-57" value="" style="sketch=0;points=[[0,0,0],[0.25,0,0],[0.5,0,0],[0.75,0,0],[1,0,0],[0,1,0],[0.25,1,0],[0.5,1,0],[0.75,1,0],[1,1,0],[0,0.25,0],[0,0.5,0],[0,0.75,0],[1,0.25,0],[1,0.5,0],[1,0.75,0]];outlineConnect=0;fontColor=#232F3E;gradientColor=#F78E04;gradientDirection=north;fillColor=#D05C17;strokeColor=#ffffff;dashed=0;verticalLabelPosition=bottom;verticalAlign=top;align=center;html=1;fontSize=12;fontStyle=0;aspect=fixed;shape=mxgraph.aws4.resourceIcon;resIcon=mxgraph.aws4.ec2;" vertex="1" parent="QBiDkqyLC_gtFL6pFu3h-56">
          <mxGeometry x="69" y="34" width="42" height="42" as="geometry" />
        </mxCell>
        <mxCell id="QBiDkqyLC_gtFL6pFu3h-21" value="Availability Zone" style="fillColor=none;strokeColor=#147EBA;dashed=1;verticalAlign=top;fontStyle=0;fontColor=#147EBA;whiteSpace=wrap;html=1;" vertex="1" parent="1">
          <mxGeometry x="500" y="355" width="220" height="615" as="geometry" />
        </mxCell>
        <mxCell id="QBiDkqyLC_gtFL6pFu3h-22" value="Availability Zone" style="fillColor=none;strokeColor=#147EBA;dashed=1;verticalAlign=top;fontStyle=0;fontColor=#147EBA;whiteSpace=wrap;html=1;" vertex="1" parent="1">
          <mxGeometry x="130" y="350" width="210" height="620" as="geometry" />
        </mxCell>
        <UserObject label="" id="QBiDkqyLC_gtFL6pFu3h-16">
          <mxCell style="points=[[0,0],[0.25,0],[0.5,0],[0.75,0],[1,0],[1,0.25],[1,0.5],[1,0.75],[1,1],[0.75,1],[0.5,1],[0.25,1],[0,1],[0,0.75],[0,0.5],[0,0.25]];outlineConnect=0;gradientColor=none;html=1;whiteSpace=wrap;fontSize=12;fontStyle=0;container=1;pointerEvents=0;collapsible=0;recursiveResize=0;shape=mxgraph.aws4.group;grIcon=mxgraph.aws4.group_vpc;strokeColor=#248814;fillColor=none;verticalAlign=top;align=left;spacingLeft=30;fontColor=#AAB7B8;dashed=0;" vertex="1" parent="1">
            <mxGeometry x="100" y="310" width="670" height="730" as="geometry" />
          </mxCell>
        </UserObject>
        <mxCell id="QBiDkqyLC_gtFL6pFu3h-54" value="Private subnet a2" style="points=[[0,0],[0.25,0],[0.5,0],[0.75,0],[1,0],[1,0.25],[1,0.5],[1,0.75],[1,1],[0.75,1],[0.5,1],[0.25,1],[0,1],[0,0.75],[0,0.5],[0,0.25]];outlineConnect=0;gradientColor=none;html=1;whiteSpace=wrap;fontSize=12;fontStyle=0;container=1;pointerEvents=0;collapsible=0;recursiveResize=0;shape=mxgraph.aws4.group;grIcon=mxgraph.aws4.group_security_group;grStroke=0;strokeColor=#147EBA;fillColor=#E6F2F8;verticalAlign=top;align=left;spacingLeft=30;fontColor=#147EBA;dashed=0;" vertex="1" parent="QBiDkqyLC_gtFL6pFu3h-16">
          <mxGeometry x="30.889999999999986" y="360" width="180" height="110" as="geometry" />
        </mxCell>
        <mxCell id="QBiDkqyLC_gtFL6pFu3h-55" value="" style="sketch=0;points=[[0,0,0],[0.25,0,0],[0.5,0,0],[0.75,0,0],[1,0,0],[0,1,0],[0.25,1,0],[0.5,1,0],[0.75,1,0],[1,1,0],[0,0.25,0],[0,0.5,0],[0,0.75,0],[1,0.25,0],[1,0.5,0],[1,0.75,0]];outlineConnect=0;fontColor=#232F3E;gradientColor=#F78E04;gradientDirection=north;fillColor=#D05C17;strokeColor=#ffffff;dashed=0;verticalLabelPosition=bottom;verticalAlign=top;align=center;html=1;fontSize=12;fontStyle=0;aspect=fixed;shape=mxgraph.aws4.resourceIcon;resIcon=mxgraph.aws4.ec2;" vertex="1" parent="QBiDkqyLC_gtFL6pFu3h-54">
          <mxGeometry x="69" y="34" width="42" height="42" as="geometry" />
        </mxCell>
        <mxCell id="QBiDkqyLC_gtFL6pFu3h-62" value="Region" style="sketch=0;outlineConnect=0;gradientColor=none;html=1;whiteSpace=wrap;fontSize=12;fontStyle=0;shape=mxgraph.aws4.group;grIcon=mxgraph.aws4.group_region;strokeColor=#879196;fillColor=none;verticalAlign=top;align=left;spacingLeft=30;fontColor=#879196;dashed=1;" vertex="1" parent="QBiDkqyLC_gtFL6pFu3h-16">
          <mxGeometry x="-40" y="-40" width="770" height="820" as="geometry" />
        </mxCell>
        <mxCell id="QBiDkqyLC_gtFL6pFu3h-17" value="" style="outlineConnect=0;dashed=0;verticalLabelPosition=bottom;verticalAlign=top;align=center;html=1;shape=mxgraph.aws3.application_load_balancer;fillColor=#F58536;gradientColor=none;" vertex="1" parent="QBiDkqyLC_gtFL6pFu3h-16">
          <mxGeometry x="284.25" y="183" width="42.71" height="44" as="geometry" />
        </mxCell>
        <mxCell id="QBiDkqyLC_gtFL6pFu3h-20" style="edgeStyle=orthogonalEdgeStyle;rounded=0;orthogonalLoop=1;jettySize=auto;html=1;entryX=0.5;entryY=0;entryDx=0;entryDy=0;entryPerimeter=0;exitX=0.5;exitY=1;exitDx=0;exitDy=0;" edge="1" parent="QBiDkqyLC_gtFL6pFu3h-16" source="QBiDkqyLC_gtFL6pFu3h-15" target="QBiDkqyLC_gtFL6pFu3h-17">
          <mxGeometry relative="1" as="geometry" />
        </mxCell>
        <mxCell id="QBiDkqyLC_gtFL6pFu3h-10" value="" style="endArrow=classic;html=1;rounded=0;exitX=0.5;exitY=1;exitDx=0;exitDy=0;" edge="1" parent="QBiDkqyLC_gtFL6pFu3h-16">
          <mxGeometry width="50" height="50" relative="1" as="geometry">
            <mxPoint x="306" y="-60" as="sourcePoint" />
            <mxPoint x="306.02941176470586" y="-30" as="targetPoint" />
          </mxGeometry>
        </mxCell>
        <mxCell id="QBiDkqyLC_gtFL6pFu3h-15" value="Amazon API Gateway" style="rounded=0;whiteSpace=wrap;html=1;strokeColor=none;fillColor=none;" vertex="1" parent="QBiDkqyLC_gtFL6pFu3h-16">
          <mxGeometry x="243.00000000000003" y="17" width="125.21" height="30" as="geometry" />
        </mxCell>
        <mxCell id="QBiDkqyLC_gtFL6pFu3h-58" value="Private subnet a3" style="points=[[0,0],[0.25,0],[0.5,0],[0.75,0],[1,0],[1,0.25],[1,0.5],[1,0.75],[1,1],[0.75,1],[0.5,1],[0.25,1],[0,1],[0,0.75],[0,0.5],[0,0.25]];outlineConnect=0;gradientColor=none;html=1;whiteSpace=wrap;fontSize=12;fontStyle=0;container=1;pointerEvents=0;collapsible=0;recursiveResize=0;shape=mxgraph.aws4.group;grIcon=mxgraph.aws4.group_security_group;grStroke=0;strokeColor=#147EBA;fillColor=#E6F2F8;verticalAlign=top;align=left;spacingLeft=30;fontColor=#147EBA;dashed=0;" vertex="1" parent="QBiDkqyLC_gtFL6pFu3h-16">
          <mxGeometry x="30.889999999999986" y="521" width="180" height="110" as="geometry" />
        </mxCell>
        <mxCell id="QBiDkqyLC_gtFL6pFu3h-71" value="" style="outlineConnect=0;dashed=0;verticalLabelPosition=bottom;verticalAlign=top;align=center;html=1;shape=mxgraph.aws3.rds;fillColor=#2E73B8;gradientColor=none;" vertex="1" parent="QBiDkqyLC_gtFL6pFu3h-58">
          <mxGeometry x="71" y="25" width="40" height="49" as="geometry" />
        </mxCell>
        <mxCell id="QBiDkqyLC_gtFL6pFu3h-63" value="" style="outlineConnect=0;dashed=0;verticalLabelPosition=bottom;verticalAlign=top;align=center;html=1;shape=mxgraph.aws3.application_load_balancer;fillColor=#F58536;gradientColor=none;" vertex="1" parent="QBiDkqyLC_gtFL6pFu3h-16">
          <mxGeometry x="284.25" y="347" width="42.71" height="44" as="geometry" />
        </mxCell>
        <mxCell id="QBiDkqyLC_gtFL6pFu3h-42" value="Auto Scaling group" style="points=[[0,0],[0.25,0],[0.5,0],[0.75,0],[1,0],[1,0.25],[1,0.5],[1,0.75],[1,1],[0.75,1],[0.5,1],[0.25,1],[0,1],[0,0.75],[0,0.5],[0,0.25]];outlineConnect=0;gradientColor=none;html=1;whiteSpace=wrap;fontSize=12;fontStyle=0;container=1;pointerEvents=0;collapsible=0;recursiveResize=0;shape=mxgraph.aws4.groupCenter;grIcon=mxgraph.aws4.group_auto_scaling_group;grStroke=1;strokeColor=#D86613;fillColor=none;verticalAlign=top;align=center;fontColor=#D86613;dashed=1;spacingTop=25;" vertex="1" parent="QBiDkqyLC_gtFL6pFu3h-16">
          <mxGeometry x="45.11" y="247" width="521" height="93" as="geometry" />
        </mxCell>
        <mxCell id="QBiDkqyLC_gtFL6pFu3h-90" value="Auto Scaling group" style="points=[[0,0],[0.25,0],[0.5,0],[0.75,0],[1,0],[1,0.25],[1,0.5],[1,0.75],[1,1],[0.75,1],[0.5,1],[0.25,1],[0,1],[0,0.75],[0,0.5],[0,0.25]];outlineConnect=0;gradientColor=none;html=1;whiteSpace=wrap;fontSize=12;fontStyle=0;container=1;pointerEvents=0;collapsible=0;recursiveResize=0;shape=mxgraph.aws4.groupCenter;grIcon=mxgraph.aws4.group_auto_scaling_group;grStroke=1;strokeColor=#D86613;fillColor=none;verticalAlign=top;align=center;fontColor=#D86613;dashed=1;spacingTop=25;" vertex="1" parent="QBiDkqyLC_gtFL6pFu3h-16">
          <mxGeometry x="45.110000000000014" y="400" width="521" height="93" as="geometry" />
        </mxCell>
        <mxCell id="QBiDkqyLC_gtFL6pFu3h-101" style="edgeStyle=orthogonalEdgeStyle;rounded=0;orthogonalLoop=1;jettySize=auto;html=1;" edge="1" parent="QBiDkqyLC_gtFL6pFu3h-16">
          <mxGeometry relative="1" as="geometry">
            <mxPoint x="326.96000000000004" y="377" as="sourcePoint" />
            <mxPoint x="423.23" y="452.70000000000005" as="targetPoint" />
            <Array as="points">
              <mxPoint x="378" y="377" />
              <mxPoint x="378" y="453" />
            </Array>
          </mxGeometry>
        </mxCell>
        <mxCell id="QBiDkqyLC_gtFL6pFu3h-48" value="Private subnet b1" style="points=[[0,0],[0.25,0],[0.5,0],[0.75,0],[1,0],[1,0.25],[1,0.5],[1,0.75],[1,1],[0.75,1],[0.5,1],[0.25,1],[0,1],[0,0.75],[0,0.5],[0,0.25]];outlineConnect=0;gradientColor=none;html=1;whiteSpace=wrap;fontSize=12;fontStyle=0;container=1;pointerEvents=0;collapsible=0;recursiveResize=0;shape=mxgraph.aws4.group;grIcon=mxgraph.aws4.group_security_group;grStroke=0;strokeColor=#147EBA;fillColor=#E6F2F8;verticalAlign=top;align=left;spacingLeft=30;fontColor=#147EBA;dashed=0;" vertex="1" parent="1">
          <mxGeometry x="514.5" y="535" width="180" height="110" as="geometry" />
        </mxCell>
        <mxCell id="QBiDkqyLC_gtFL6pFu3h-49" value="" style="sketch=0;points=[[0,0,0],[0.25,0,0],[0.5,0,0],[0.75,0,0],[1,0,0],[0,1,0],[0.25,1,0],[0.5,1,0],[0.75,1,0],[1,1,0],[0,0.25,0],[0,0.5,0],[0,0.75,0],[1,0.25,0],[1,0.5,0],[1,0.75,0]];outlineConnect=0;fontColor=#232F3E;gradientColor=#F78E04;gradientDirection=north;fillColor=#D05C17;strokeColor=#ffffff;dashed=0;verticalLabelPosition=bottom;verticalAlign=top;align=center;html=1;fontSize=12;fontStyle=0;aspect=fixed;shape=mxgraph.aws4.resourceIcon;resIcon=mxgraph.aws4.ec2;" vertex="1" parent="QBiDkqyLC_gtFL6pFu3h-48">
          <mxGeometry x="69" y="34" width="42" height="42" as="geometry" />
        </mxCell>
        <mxCell id="QBiDkqyLC_gtFL6pFu3h-26" value="Private subnet a1" style="points=[[0,0],[0.25,0],[0.5,0],[0.75,0],[1,0],[1,0.25],[1,0.5],[1,0.75],[1,1],[0.75,1],[0.5,1],[0.25,1],[0,1],[0,0.75],[0,0.5],[0,0.25]];outlineConnect=0;gradientColor=none;html=1;whiteSpace=wrap;fontSize=12;fontStyle=0;container=1;pointerEvents=0;collapsible=0;recursiveResize=0;shape=mxgraph.aws4.group;grIcon=mxgraph.aws4.group_security_group;grStroke=0;strokeColor=#147EBA;fillColor=#E6F2F8;verticalAlign=top;align=left;spacingLeft=30;fontColor=#147EBA;dashed=0;" vertex="1" parent="1">
          <mxGeometry x="145" y="530" width="180" height="110" as="geometry" />
        </mxCell>
        <mxCell id="QBiDkqyLC_gtFL6pFu3h-30" value="" style="sketch=0;points=[[0,0,0],[0.25,0,0],[0.5,0,0],[0.75,0,0],[1,0,0],[0,1,0],[0.25,1,0],[0.5,1,0],[0.75,1,0],[1,1,0],[0,0.25,0],[0,0.5,0],[0,0.75,0],[1,0.25,0],[1,0.5,0],[1,0.75,0]];outlineConnect=0;fontColor=#232F3E;gradientColor=#F78E04;gradientDirection=north;fillColor=#D05C17;strokeColor=#ffffff;dashed=0;verticalLabelPosition=bottom;verticalAlign=top;align=center;html=1;fontSize=12;fontStyle=0;aspect=fixed;shape=mxgraph.aws4.resourceIcon;resIcon=mxgraph.aws4.ec2;" vertex="1" parent="QBiDkqyLC_gtFL6pFu3h-26">
          <mxGeometry x="69" y="34" width="42" height="42" as="geometry" />
        </mxCell>
        <mxCell id="QBiDkqyLC_gtFL6pFu3h-14" value="" style="edgeStyle=orthogonalEdgeStyle;rounded=0;orthogonalLoop=1;jettySize=auto;html=1;entryX=0.5;entryY=0;entryDx=0;entryDy=0;entryPerimeter=0;" edge="1" parent="1" source="QBiDkqyLC_gtFL6pFu3h-1" target="QBiDkqyLC_gtFL6pFu3h-104">
          <mxGeometry relative="1" as="geometry">
            <mxPoint x="407" y="170" as="targetPoint" />
          </mxGeometry>
        </mxCell>
        <mxCell id="QBiDkqyLC_gtFL6pFu3h-1" value="" style="sketch=0;outlineConnect=0;fontColor=#232F3E;gradientColor=none;fillColor=#232F3D;strokeColor=none;dashed=0;verticalLabelPosition=bottom;verticalAlign=top;align=center;html=1;fontSize=12;fontStyle=0;aspect=fixed;pointerEvents=1;shape=mxgraph.aws4.client;" vertex="1" parent="1">
          <mxGeometry x="385.46999999999997" y="70" width="41.05" height="40" as="geometry" />
        </mxCell>
        <mxCell id="QBiDkqyLC_gtFL6pFu3h-23" value="Public subnet a1" style="points=[[0,0],[0.25,0],[0.5,0],[0.75,0],[1,0],[1,0.25],[1,0.5],[1,0.75],[1,1],[0.75,1],[0.5,1],[0.25,1],[0,1],[0,0.75],[0,0.5],[0,0.25]];outlineConnect=0;gradientColor=none;html=1;whiteSpace=wrap;fontSize=12;fontStyle=0;container=1;pointerEvents=0;collapsible=0;recursiveResize=0;shape=mxgraph.aws4.group;grIcon=mxgraph.aws4.group_security_group;grStroke=0;strokeColor=#248814;fillColor=#E9F3E6;verticalAlign=top;align=left;spacingLeft=30;fontColor=#248814;dashed=0;" vertex="1" parent="1">
          <mxGeometry x="145" y="390" width="180" height="120" as="geometry" />
        </mxCell>
        <mxCell id="QBiDkqyLC_gtFL6pFu3h-36" value="" style="outlineConnect=0;dashed=0;verticalLabelPosition=bottom;verticalAlign=top;align=center;html=1;shape=mxgraph.aws3.vpc_nat_gateway;fillColor=#F58536;gradientColor=none;" vertex="1" parent="QBiDkqyLC_gtFL6pFu3h-23">
          <mxGeometry x="115" y="27" width="40" height="44" as="geometry" />
        </mxCell>
        <mxCell id="QBiDkqyLC_gtFL6pFu3h-28" value="Devops Host&lt;br&gt;(EC2 instance)" style="rounded=0;whiteSpace=wrap;html=1;strokeColor=none;fillColor=none;" vertex="1" parent="QBiDkqyLC_gtFL6pFu3h-23">
          <mxGeometry x="-6.609999999999985" y="80" width="125.21" height="30" as="geometry" />
        </mxCell>
        <mxCell id="QBiDkqyLC_gtFL6pFu3h-27" value="" style="sketch=0;points=[[0,0,0],[0.25,0,0],[0.5,0,0],[0.75,0,0],[1,0,0],[0,1,0],[0.25,1,0],[0.5,1,0],[0.75,1,0],[1,1,0],[0,0.25,0],[0,0.5,0],[0,0.75,0],[1,0.25,0],[1,0.5,0],[1,0.75,0]];outlineConnect=0;fontColor=#232F3E;gradientColor=#F78E04;gradientDirection=north;fillColor=#D05C17;strokeColor=#ffffff;dashed=0;verticalLabelPosition=bottom;verticalAlign=top;align=center;html=1;fontSize=12;fontStyle=0;aspect=fixed;shape=mxgraph.aws4.resourceIcon;resIcon=mxgraph.aws4.ec2;" vertex="1" parent="1">
          <mxGeometry x="180" y="418" width="42" height="42" as="geometry" />
        </mxCell>
        <mxCell id="QBiDkqyLC_gtFL6pFu3h-29" value="Public subnet b1" style="points=[[0,0],[0.25,0],[0.5,0],[0.75,0],[1,0],[1,0.25],[1,0.5],[1,0.75],[1,1],[0.75,1],[0.5,1],[0.25,1],[0,1],[0,0.75],[0,0.5],[0,0.25]];outlineConnect=0;gradientColor=none;html=1;whiteSpace=wrap;fontSize=12;fontStyle=0;container=1;pointerEvents=0;collapsible=0;recursiveResize=0;shape=mxgraph.aws4.group;grIcon=mxgraph.aws4.group_security_group;grStroke=0;strokeColor=#248814;fillColor=#E9F3E6;verticalAlign=top;align=left;spacingLeft=30;fontColor=#248814;dashed=0;" vertex="1" parent="1">
          <mxGeometry x="515" y="390" width="180" height="120" as="geometry" />
        </mxCell>
        <mxCell id="QBiDkqyLC_gtFL6pFu3h-37" value="" style="outlineConnect=0;dashed=0;verticalLabelPosition=bottom;verticalAlign=top;align=center;html=1;shape=mxgraph.aws3.vpc_nat_gateway;fillColor=#F58536;gradientColor=none;" vertex="1" parent="QBiDkqyLC_gtFL6pFu3h-29">
          <mxGeometry x="125" y="28" width="40" height="44" as="geometry" />
        </mxCell>
        <mxCell id="QBiDkqyLC_gtFL6pFu3h-31" value="" style="sketch=0;points=[[0,0,0],[0.25,0,0],[0.5,0,0],[0.75,0,0],[1,0,0],[0,1,0],[0.25,1,0],[0.5,1,0],[0.75,1,0],[1,1,0],[0,0.25,0],[0,0.5,0],[0,0.75,0],[1,0.25,0],[1,0.5,0],[1,0.75,0]];outlineConnect=0;fontColor=#232F3E;gradientColor=#F78E04;gradientDirection=north;fillColor=#D05C17;strokeColor=#ffffff;dashed=0;verticalLabelPosition=bottom;verticalAlign=top;align=center;html=1;fontSize=12;fontStyle=0;aspect=fixed;shape=mxgraph.aws4.resourceIcon;resIcon=mxgraph.aws4.ec2;" vertex="1" parent="1">
          <mxGeometry x="585.5" y="567" width="42" height="42" as="geometry" />
        </mxCell>
        <mxCell id="QBiDkqyLC_gtFL6pFu3h-68" style="edgeStyle=orthogonalEdgeStyle;rounded=0;orthogonalLoop=1;jettySize=auto;html=1;entryX=0;entryY=0.5;entryDx=0;entryDy=0;entryPerimeter=0;" edge="1" parent="1" source="QBiDkqyLC_gtFL6pFu3h-41" target="QBiDkqyLC_gtFL6pFu3h-63">
          <mxGeometry relative="1" as="geometry" />
        </mxCell>
        <mxCell id="QBiDkqyLC_gtFL6pFu3h-41" value="Nginx Web Server&lt;br&gt;(EC2 Instance)" style="rounded=0;whiteSpace=wrap;html=1;strokeColor=none;fillColor=none;" vertex="1" parent="1">
          <mxGeometry x="172.39000000000001" y="609" width="125.21" height="30" as="geometry" />
        </mxCell>
        <mxCell id="QBiDkqyLC_gtFL6pFu3h-46" style="edgeStyle=orthogonalEdgeStyle;rounded=0;orthogonalLoop=1;jettySize=auto;html=1;exitX=0;exitY=0.5;exitDx=0;exitDy=0;exitPerimeter=0;" edge="1" parent="1" source="QBiDkqyLC_gtFL6pFu3h-17" target="QBiDkqyLC_gtFL6pFu3h-30">
          <mxGeometry relative="1" as="geometry" />
        </mxCell>
        <mxCell id="QBiDkqyLC_gtFL6pFu3h-50" style="edgeStyle=orthogonalEdgeStyle;rounded=0;orthogonalLoop=1;jettySize=auto;html=1;" edge="1" parent="1" source="QBiDkqyLC_gtFL6pFu3h-17" target="QBiDkqyLC_gtFL6pFu3h-49">
          <mxGeometry relative="1" as="geometry" />
        </mxCell>
        <mxCell id="QBiDkqyLC_gtFL6pFu3h-69" style="edgeStyle=orthogonalEdgeStyle;rounded=0;orthogonalLoop=1;jettySize=auto;html=1;entryX=1;entryY=0.5;entryDx=0;entryDy=0;entryPerimeter=0;" edge="1" parent="1" source="QBiDkqyLC_gtFL6pFu3h-51" target="QBiDkqyLC_gtFL6pFu3h-63">
          <mxGeometry relative="1" as="geometry" />
        </mxCell>
        <mxCell id="QBiDkqyLC_gtFL6pFu3h-51" value="Nginx Web Server&lt;br&gt;(EC2 Instance)" style="rounded=0;whiteSpace=wrap;html=1;strokeColor=none;fillColor=none;" vertex="1" parent="1">
          <mxGeometry x="543.89" y="610" width="125.21" height="30" as="geometry" />
        </mxCell>
        <mxCell id="QBiDkqyLC_gtFL6pFu3h-11" value="" style="sketch=0;points=[[0,0,0],[0.25,0,0],[0.5,0,0],[0.75,0,0],[1,0,0],[0,1,0],[0.25,1,0],[0.5,1,0],[0.75,1,0],[1,1,0],[0,0.25,0],[0,0.5,0],[0,0.75,0],[1,0.25,0],[1,0.5,0],[1,0.75,0]];outlineConnect=0;fontColor=#232F3E;gradientColor=#FF4F8B;gradientDirection=north;fillColor=#BC1356;strokeColor=#ffffff;dashed=0;verticalLabelPosition=bottom;verticalAlign=top;align=center;html=1;fontSize=12;fontStyle=0;aspect=fixed;shape=mxgraph.aws4.resourceIcon;resIcon=mxgraph.aws4.api_gateway;" vertex="1" parent="1">
          <mxGeometry x="385" y="281" width="42" height="42" as="geometry" />
        </mxCell>
        <mxCell id="QBiDkqyLC_gtFL6pFu3h-5" value="Amazon Route 53" style="rounded=0;whiteSpace=wrap;html=1;strokeColor=none;fillColor=none;" vertex="1" parent="1">
          <mxGeometry x="348" y="220" width="120" height="30" as="geometry" />
        </mxCell>
        <mxCell id="QBiDkqyLC_gtFL6pFu3h-92" style="edgeStyle=orthogonalEdgeStyle;rounded=0;orthogonalLoop=1;jettySize=auto;html=1;entryX=0.845;entryY=1.004;entryDx=0;entryDy=0;entryPerimeter=0;" edge="1" parent="1" source="QBiDkqyLC_gtFL6pFu3h-56" target="QBiDkqyLC_gtFL6pFu3h-85">
          <mxGeometry relative="1" as="geometry" />
        </mxCell>
        <mxCell id="QBiDkqyLC_gtFL6pFu3h-60" value="Private subnet b3" style="points=[[0,0],[0.25,0],[0.5,0],[0.75,0],[1,0],[1,0.25],[1,0.5],[1,0.75],[1,1],[0.75,1],[0.5,1],[0.25,1],[0,1],[0,0.75],[0,0.5],[0,0.25]];outlineConnect=0;gradientColor=none;html=1;whiteSpace=wrap;fontSize=12;fontStyle=0;container=1;pointerEvents=0;collapsible=0;recursiveResize=0;shape=mxgraph.aws4.group;grIcon=mxgraph.aws4.group_security_group;grStroke=0;strokeColor=#147EBA;fillColor=#E6F2F8;verticalAlign=top;align=left;spacingLeft=30;fontColor=#147EBA;dashed=0;" vertex="1" parent="1">
          <mxGeometry x="516.5" y="833" width="180" height="110" as="geometry" />
        </mxCell>
        <mxCell id="QBiDkqyLC_gtFL6pFu3h-87" value="StandBy RDB Database" style="rounded=0;whiteSpace=wrap;html=1;strokeColor=none;fillColor=none;" vertex="1" parent="QBiDkqyLC_gtFL6pFu3h-60">
          <mxGeometry x="19.690000000000055" y="75" width="137.61" height="30" as="geometry" />
        </mxCell>
        <mxCell id="QBiDkqyLC_gtFL6pFu3h-9" value="&lt;font style=&quot;font-size: 11px;&quot;&gt;AWS Cloud Seoul Region(ap-northeast-2)&lt;/font&gt;" style="rounded=0;whiteSpace=wrap;html=1;strokeColor=none;fillColor=none;" vertex="1" parent="1">
          <mxGeometry x="132" y="269" width="210" height="30" as="geometry" />
        </mxCell>
        <mxCell id="QBiDkqyLC_gtFL6pFu3h-83" value="" style="outlineConnect=0;dashed=0;verticalLabelPosition=bottom;verticalAlign=top;align=center;html=1;shape=mxgraph.aws3.rds;fillColor=#2E73B8;gradientColor=none;" vertex="1" parent="1">
          <mxGeometry x="585" y="860" width="40" height="49" as="geometry" />
        </mxCell>
        <mxCell id="QBiDkqyLC_gtFL6pFu3h-86" value="Primary RDB Database" style="rounded=0;whiteSpace=wrap;html=1;strokeColor=none;fillColor=none;" vertex="1" parent="1">
          <mxGeometry x="168.2" y="908" width="137.61" height="30" as="geometry" />
        </mxCell>
        <mxCell id="QBiDkqyLC_gtFL6pFu3h-85" value="" style="rounded=1;arcSize=10;dashed=1;fillColor=none;gradientColor=none;dashPattern=1 1;strokeWidth=2;" vertex="1" parent="1">
          <mxGeometry x="160" y="850" width="530" height="90" as="geometry" />
        </mxCell>
        <mxCell id="QBiDkqyLC_gtFL6pFu3h-91" style="edgeStyle=orthogonalEdgeStyle;rounded=0;orthogonalLoop=1;jettySize=auto;html=1;entryX=0.151;entryY=1;entryDx=0;entryDy=0;entryPerimeter=0;" edge="1" parent="1" source="QBiDkqyLC_gtFL6pFu3h-88" target="QBiDkqyLC_gtFL6pFu3h-85">
          <mxGeometry relative="1" as="geometry" />
        </mxCell>
        <mxCell id="QBiDkqyLC_gtFL6pFu3h-88" value="Api Server&lt;br&gt;(EC2 Instance)" style="rounded=0;whiteSpace=wrap;html=1;strokeColor=none;fillColor=none;" vertex="1" parent="1">
          <mxGeometry x="172.39000000000001" y="750" width="125.21" height="30" as="geometry" />
        </mxCell>
        <mxCell id="QBiDkqyLC_gtFL6pFu3h-89" value="Api Server&lt;br&gt;(EC2 Instance)" style="rounded=0;whiteSpace=wrap;html=1;strokeColor=none;fillColor=none;" vertex="1" parent="1">
          <mxGeometry x="550" y="750" width="125.21" height="30" as="geometry" />
        </mxCell>
        <mxCell id="QBiDkqyLC_gtFL6pFu3h-93" style="edgeStyle=orthogonalEdgeStyle;rounded=0;orthogonalLoop=1;jettySize=auto;html=1;exitX=0;exitY=0.5;exitDx=0;exitDy=0;entryX=-0.023;entryY=0.499;entryDx=0;entryDy=0;entryPerimeter=0;" edge="1" parent="1" source="QBiDkqyLC_gtFL6pFu3h-22" target="QBiDkqyLC_gtFL6pFu3h-22">
          <mxGeometry relative="1" as="geometry" />
        </mxCell>
        <mxCell id="QBiDkqyLC_gtFL6pFu3h-100" style="edgeStyle=orthogonalEdgeStyle;rounded=0;orthogonalLoop=1;jettySize=auto;html=1;exitX=0.145;exitY=0.855;exitDx=0;exitDy=0;exitPerimeter=0;" edge="1" parent="1" target="QBiDkqyLC_gtFL6pFu3h-88">
          <mxGeometry relative="1" as="geometry">
            <mxPoint x="392.4429500000001" y="687.6199999999999" as="sourcePoint" />
            <mxPoint x="289.60000000000014" y="758" as="targetPoint" />
            <Array as="points">
              <mxPoint x="338" y="688" />
              <mxPoint x="338" y="763" />
            </Array>
          </mxGeometry>
        </mxCell>
        <mxCell id="QBiDkqyLC_gtFL6pFu3h-104" value="" style="outlineConnect=0;dashed=0;verticalLabelPosition=bottom;verticalAlign=top;align=center;html=1;shape=mxgraph.aws3.route_53;fillColor=#F58536;gradientColor=none;" vertex="1" parent="1">
          <mxGeometry x="380.75" y="165.5" width="50.5" height="54.5" as="geometry" />
        </mxCell>
      </root>
    </mxGraphModel>
  </diagram>
</mxfile>
